<svg width="31" height="24" viewBox="0 0 31 24" fill="none" xmlns="http://www.w3.org/2000/svg">
<path d="M24.2147 18.67L21.5731 14.4L18.9316 18.67" stroke="#8A8AAA" stroke-width="1.5" stroke-linecap="round" stroke-linejoin="round"/>
<path d="M19.413 17.91H23.758" stroke="#8A8AAA" stroke-width="1.5" stroke-linecap="round" stroke-linejoin="round"/>
<path d="M21.5731 22C18.1169 22 15.3025 19.73 15.3025 16.92C15.3025 14.12 18.1045 11.84 21.5731 11.84C25.0294 11.84 27.8437 14.11 27.8437 16.92C27.8437 19.73 25.0417 22 21.5731 22Z" stroke="#8A8AAA" stroke-width="1.5" stroke-linecap="round" stroke-linejoin="round"/>
<path d="M6.88407 2H11.7228C14.278 2 15.5124 3.00002 15.4506 5.02002V8.94C15.5124 11.01 14.278 12.01 11.7228 11.96H6.88407C4.39063 12 3.15625 11 3.15625 8.92999V5.01001C3.15625 3.00001 4.39063 2 6.88407 2Z" stroke="#8A8AAA" stroke-width="1.5" stroke-linecap="round" stroke-linejoin="round"/>
<path d="M11.8092 5.84998H6.79767" stroke="#8A8AAA" stroke-width="1.5" stroke-linecap="round" stroke-linejoin="round"/>
<path d="M9.29114 5.16998V5.84998" stroke="#8A8AAA" stroke-width="1.5" stroke-linecap="round" stroke-linejoin="round"/>
<path d="M10.5502 5.84003C10.5502 7.59003 8.85909 9.01001 6.78534 9.01001" stroke="#8A8AAA" stroke-width="1.5" stroke-linecap="round" stroke-linejoin="round"/>
<path d="M11.8092 9.01001C10.9081 9.01001 10.0934 8.62 9.52563 8" stroke="#8A8AAA" stroke-width="1.5" stroke-linecap="round" stroke-linejoin="round"/>
<path d="M3.15625 15C3.15625 18.87 7.01984 22 11.7969 22L10.5008 20.25" stroke="#8A8AAA" stroke-width="1.5" stroke-linecap="round" stroke-linejoin="round"/>
<path d="M27.8438 9C27.8438 5.13 23.9802 2 19.2031 2L20.4992 3.75" stroke="#8A8AAA" stroke-width="1.5" stroke-linecap="round" stroke-linejoin="round"/>
</svg>