<svg width="319" height="33" viewBox="0 0 319 33" fill="none" xmlns="http://www.w3.org/2000/svg">
<path d="M248.526 30.1406H232.99C229.589 30.1406 226.831 27.3406 226.831 23.8875V8.1125C226.831 4.65938 229.589 1.85938 232.99 1.85938H248.523C251.923 1.85938 254.681 4.65938 254.681 8.1125V23.8844C254.684 27.3406 251.927 30.1406 248.526 30.1406Z" fill="#8A8AAA"/>
<path d="M239.739 13.9469C236.221 15.0094 230.007 17.4437 229.709 27.3219C230.832 22.0031 233.602 21.2406 238.692 20.025C243.783 18.8125 246.55 17.4438 249.621 13.7188C252.69 9.99375 251.643 4.675 251.643 4.675C251.643 7.5625 249.621 9.4625 247.676 10.8313C245.731 12.2 243.257 12.8844 239.739 13.9469Z" fill="url(#paint0_linear_158_169)"/>
<path d="M229.709 27.325C229.718 27.0688 229.73 26.8219 229.746 26.5781C229.718 26.8406 229.703 27.0906 229.709 27.325Z" fill="url(#paint1_linear_158_169)"/>
<path d="M242.802 18.8063C240.158 19.3125 237.465 19.2531 235.698 19.725C232.556 20.5594 229.937 24.3594 229.709 27.3219C229.718 27.0688 229.731 26.8219 229.746 26.575C230.094 23.35 233.021 18.0594 239.441 15.1625C241.484 14.2406 243.325 13.2625 244.925 12.2625C245.959 11.8531 246.864 11.4 247.673 10.8313C249.619 9.4625 251.641 7.5625 251.641 4.675C251.641 4.675 251.807 9.0125 250.422 12.725C250.231 13.0781 250.016 13.4188 249.769 13.7406C247.904 16.2 245.704 17.7063 242.802 18.8063Z" fill="url(#paint2_linear_158_169)"/>
<path d="M229.752 26.45C229.733 26.7344 229.718 27.025 229.709 27.3219C229.69 27.0531 229.706 26.7594 229.752 26.45C230.38 17.2969 236.326 14.9781 239.739 13.9469C243.257 12.8844 245.728 12.2 247.673 10.8313C249.618 9.4625 251.64 7.5625 251.64 4.675C251.64 4.675 252.69 9.99375 249.618 13.7188C246.55 17.4438 244.005 15.9219 238.914 17.1375C234.27 18.25 230.247 23.2219 229.752 26.45Z" fill="url(#paint3_linear_158_169)"/>
<path d="M237.643 17.6719C242.435 16.7594 245.427 16.8344 248.723 13.2625C252.016 9.69063 251.641 4.675 251.641 4.675C251.641 7.5625 249.619 9.4625 247.673 10.8313C246.861 11.4031 245.956 11.8531 244.925 12.2625C243.325 13.2625 241.112 14.2844 239.068 15.2063C232.648 18.1031 230.094 23.35 229.746 26.575C229.731 26.8188 229.718 27.0656 229.709 27.3219C229.937 24.3562 232.854 18.5844 237.643 17.6719Z" fill="url(#paint4_linear_158_169)"/>
<path d="M229.709 27.325C229.718 27.0688 229.73 26.8219 229.746 26.5781C229.718 26.8406 229.703 27.0906 229.709 27.325Z" fill="url(#paint5_linear_158_169)"/>
<path d="M241.013 14.7094C232.254 16.3813 229.635 24.2344 229.709 27.325C229.933 24.3625 232.479 20.9406 235.772 19.1156C240.638 16.6063 245.728 17.975 249.246 14.3281C252.764 10.6813 251.64 4.675 251.64 4.675C251.64 7.5625 250.591 10.3 248.72 11.8969C246.851 13.4906 243.109 14.3031 241.013 14.7094Z" fill="url(#paint6_linear_158_169)"/>
<g clip-path="url(#clip0_158_169)">
<path d="M264 2L266.215 27.5105L276.188 30.875L286.16 27.5105L288.375 2H264ZM283.875 7.15625L283.57 10.2049L276.251 13.3824L276.232 13.3889H283.31L282.497 22.8377L276.264 24.6875L269.992 22.8055L269.586 18.0424H272.69L272.893 20.5109L276.232 21.3682L279.704 20.3756L279.939 16.4053L269.383 16.373V16.3666L269.37 16.373L269.142 13.3889L276.257 10.3789L276.67 10.2049H268.869L268.501 7.15625H283.875Z" fill="#8A8AAA"/>
</g>
<g clip-path="url(#clip1_158_169)">
<path d="M170.742 11.075C170.409 10.9625 170.077 10.8563 169.745 10.7563C169.8 10.525 169.849 10.2937 169.898 10.0625C170.655 6.3375 170.157 3.34375 168.477 2.35625C166.858 1.4125 164.217 2.39375 161.546 4.75625C161.281 4.9875 161.022 5.23125 160.776 5.475C160.61 5.3125 160.438 5.15 160.265 4.99375C157.465 2.46875 154.658 1.40625 152.977 2.4C151.365 3.35 150.885 6.16875 151.562 9.69375C151.629 10.0438 151.703 10.3875 151.789 10.7375C151.395 10.85 151.008 10.975 150.644 11.1062C147.357 12.2625 145 14.0875 145 15.975C145 17.925 147.511 19.8813 150.928 21.0688C151.205 21.1625 151.482 21.2563 151.765 21.3375C151.672 21.7125 151.592 22.0812 151.519 22.4625C150.872 25.9312 151.377 28.6812 152.99 29.625C154.652 30.6 157.446 29.6 160.167 27.1812C160.382 26.9875 160.598 26.7875 160.813 26.575C161.084 26.8438 161.367 27.1 161.65 27.35C164.285 29.65 166.888 30.5813 168.495 29.6375C170.157 28.6625 170.699 25.7063 169.997 22.1063C169.941 21.8313 169.88 21.55 169.812 21.2625C170.009 21.2063 170.2 21.1437 170.391 21.0812C173.942 19.8875 176.515 17.9563 176.515 15.975C176.515 14.0813 174.09 12.2437 170.742 11.075ZM162.413 5.76875C164.703 3.74375 166.839 2.95 167.812 3.51875C168.852 4.125 169.252 6.575 168.6 9.79375C168.557 10.0063 168.513 10.2125 168.458 10.4187C167.092 10.1062 165.707 9.88125 164.315 9.75625C163.515 8.59375 162.641 7.48125 161.693 6.4375C161.933 6.20625 162.167 5.9875 162.413 5.76875ZM155.292 19.2188C155.606 19.7625 155.926 20.3062 156.264 20.8375C155.304 20.7312 154.35 20.575 153.408 20.3687C153.679 19.4688 154.018 18.5375 154.412 17.5875C154.695 18.1375 154.984 18.6812 155.292 19.2188ZM153.427 11.7C154.313 11.5 155.255 11.3375 156.234 11.2125C155.907 11.7312 155.587 12.2625 155.286 12.8C154.984 13.3313 154.689 13.875 154.412 14.425C154.024 13.4938 153.698 12.5813 153.427 11.7ZM155.113 16.0063C155.519 15.1438 155.963 14.3 156.43 13.4688C156.898 12.6375 157.403 11.8313 157.932 11.0375C158.856 10.9688 159.797 10.9312 160.758 10.9312C161.718 10.9312 162.666 10.9688 163.583 11.0375C164.106 11.825 164.605 12.6313 165.079 13.4563C165.553 14.2812 165.996 15.125 166.414 15.9812C166.002 16.8438 165.559 17.6938 165.085 18.5312C164.617 19.3625 164.119 20.1688 163.595 20.9688C162.678 21.0375 161.724 21.0688 160.758 21.0688C159.791 21.0688 158.856 21.0375 157.951 20.9813C157.415 20.1875 156.911 19.375 156.437 18.5438C155.963 17.7125 155.526 16.8688 155.113 16.0063ZM166.23 19.2062C166.544 18.6562 166.839 18.1 167.128 17.5375C167.522 18.4438 167.867 19.3625 168.169 20.3062C167.215 20.525 166.248 20.6938 165.276 20.8062C165.608 20.2812 165.922 19.7437 166.23 19.2062ZM167.116 14.425C166.827 13.875 166.531 13.325 166.224 12.7875C165.922 12.2563 165.608 11.7312 165.282 11.2125C166.273 11.3375 167.221 11.5062 168.107 11.7125C167.824 12.6375 167.492 13.5375 167.116 14.425ZM160.77 7.39375C161.416 8.10625 162.026 8.85625 162.592 9.63125C161.373 9.575 160.148 9.575 158.93 9.63125C159.533 8.825 160.154 8.075 160.77 7.39375ZM153.63 3.5625C154.664 2.95 156.96 3.825 159.379 6C159.533 6.1375 159.687 6.2875 159.847 6.4375C158.893 7.48125 158.012 8.59375 157.206 9.75625C155.815 9.88125 154.436 10.1 153.07 10.4062C152.99 10.0875 152.922 9.7625 152.854 9.4375C152.276 6.4125 152.657 4.13125 153.63 3.5625ZM152.122 20.0375C151.863 19.9625 151.611 19.8813 151.358 19.7938C150.047 19.375 148.558 18.7125 147.481 17.8438C146.859 17.4062 146.44 16.7313 146.323 15.975C146.323 14.8313 148.268 13.3687 151.075 12.375C151.426 12.25 151.783 12.1375 152.14 12.0312C152.559 13.3875 153.064 14.7188 153.648 16.0063C153.057 17.3125 152.546 18.6625 152.122 20.0375ZM159.299 26.1625C158.283 27.1063 157.108 27.8562 155.827 28.3687C155.144 28.7 154.356 28.7313 153.654 28.45C152.676 27.875 152.269 25.6688 152.823 22.7C152.891 22.35 152.965 22 153.051 21.6562C154.43 21.9562 155.821 22.1625 157.231 22.2687C158.043 23.4375 158.936 24.5563 159.89 25.6063C159.693 25.8 159.496 25.9875 159.299 26.1625ZM160.807 24.6437C160.179 23.9562 159.551 23.1938 158.942 22.375C159.533 22.4 160.142 22.4125 160.758 22.4125C161.392 22.4125 162.013 22.4 162.629 22.3687C162.063 23.1625 161.453 23.9187 160.807 24.6437ZM168.852 26.5187C168.797 27.2812 168.427 27.9937 167.836 28.475C166.858 29.05 164.771 28.3 162.518 26.3375C162.26 26.1125 162.001 25.8687 161.736 25.6187C162.678 24.5625 163.546 23.4437 164.334 22.2687C165.744 22.15 167.147 21.9312 168.532 21.6125C168.593 21.8687 168.649 22.125 168.698 22.375C169 23.725 169.049 25.1312 168.852 26.5187ZM169.972 19.8C169.8 19.8562 169.628 19.9125 169.449 19.9625C169.018 18.6 168.489 17.2688 167.879 15.975C168.47 14.7 168.969 13.3875 169.387 12.0437C169.708 12.1375 170.015 12.2375 170.311 12.3375C173.179 13.3375 175.192 14.825 175.192 15.9625C175.192 17.1875 173.044 18.7687 169.972 19.8ZM160.758 18.8625C162.315 18.8625 163.577 17.5813 163.577 16C163.577 14.4187 162.315 13.1375 160.758 13.1375C159.2 13.1375 157.939 14.4187 157.939 16C157.939 17.5813 159.2 18.8625 160.758 18.8625Z" fill="#8A8AAA"/>
</g>
<g clip-path="url(#clip2_158_169)">
<path d="M130.628 20.1674C131.25 19.7355 132.113 19.3617 132.113 19.3617C132.113 19.3617 129.656 19.8129 127.213 20.0191C124.223 20.2705 121.011 20.3221 119.398 20.1029C115.584 19.5873 121.493 18.1629 121.493 18.1629C121.493 18.1629 119.202 18.0082 116.377 19.3875C113.044 21.0246 124.629 21.7723 130.628 20.1674ZM125.207 18.0984C124.001 15.3463 119.932 12.9293 125.207 8.70117C131.789 3.42891 128.412 0 128.412 0C129.777 5.44629 123.613 7.09629 121.385 10.4801C119.868 12.7939 122.128 15.2754 125.207 18.0984ZM132.481 6.7418C132.487 6.7418 121.36 9.56484 126.673 15.7781C128.241 17.6086 126.26 19.2586 126.26 19.2586C126.26 19.2586 130.24 17.1703 128.412 14.56C126.705 12.1236 125.397 10.9119 132.481 6.7418ZM132.094 24.1764C132.059 24.2378 132.016 24.2941 131.967 24.3439C140.111 22.1719 137.115 16.6805 133.224 18.0727C133.014 18.151 132.832 18.2926 132.703 18.4787C132.931 18.3952 133.164 18.3306 133.402 18.2854C135.369 17.8664 138.194 20.9602 132.094 24.1764ZM135.09 28.1918C135.09 28.1918 136.01 28.9588 134.081 29.5582C130.405 30.6861 118.795 31.0277 115.571 29.6033C114.409 29.0941 116.586 28.3787 117.272 28.2305C117.983 28.0758 118.396 28.1016 118.396 28.1016C117.107 27.1799 110.061 29.9127 114.815 30.6926C127.777 32.8324 138.454 29.7322 135.09 28.1918ZM120.897 25.5234C115.901 26.9414 123.937 29.8676 130.297 27.1025C129.677 26.8578 129.078 26.5603 128.507 26.2131C125.67 26.7609 124.356 26.7996 121.779 26.5031C119.652 26.2582 120.897 25.5234 120.897 25.5234ZM132.31 31.7883C127.314 32.7422 121.15 32.6326 117.501 32.0203C117.501 32.0139 118.25 32.6455 122.096 32.8969C127.949 33.2771 136.937 32.6842 137.147 29.874C137.147 29.874 136.74 30.9375 132.31 31.7883ZM129.542 22.752C125.784 23.4867 123.607 23.4674 120.858 23.1773C118.732 22.9518 120.122 21.9076 120.122 21.9076C114.612 23.7639 123.182 25.865 130.881 23.577C130.384 23.3985 129.928 23.1176 129.542 22.752Z" fill="#8A8AAA"/>
</g>
<g clip-path="url(#clip3_158_169)">
<path d="M77 2V30H104.576V2H77ZM92.0067 23.8375C92.0067 26.5625 90.431 27.8062 88.135 27.8062C86.0607 27.8062 84.8604 26.7188 84.2448 25.4L86.3561 24.1063C86.7624 24.8375 87.1317 25.4562 88.0242 25.4562C88.8737 25.4562 89.4153 25.1187 89.4153 23.8V14.8562H92.0067V23.8375ZM98.1375 27.8062C95.7307 27.8062 94.1734 26.6437 93.4163 25.1187L95.5276 23.8813C96.0816 24.8 96.8079 25.4813 98.0821 25.4813C99.1531 25.4813 99.8425 24.9375 99.8425 24.1812C99.8425 23.2812 99.1408 22.9625 97.9528 22.4312L97.3065 22.15C95.4353 21.3438 94.198 20.325 94.198 18.1812C94.198 16.2062 95.6815 14.7063 97.9897 14.7063C99.6394 14.7063 100.821 15.2875 101.671 16.8125L99.6517 18.125C99.2085 17.3188 98.7284 17 97.9836 17C97.2265 17 96.7464 17.4875 96.7464 18.125C96.7464 18.9125 97.2265 19.2313 98.3406 19.725L98.9869 20.0063C101.191 20.9625 102.428 21.9437 102.428 24.1437C102.428 26.5062 100.593 27.8062 98.1375 27.8062Z" fill="#8A8AAA"/>
</g>
<g clip-path="url(#clip4_158_169)">
<path fill-rule="evenodd" clip-rule="evenodd" d="M13.6105 0.2183C14.1267 -0.0719858 14.7623 -0.0719858 15.2777 0.2183C17.8283 1.65297 25.5037 5.97144 28.0551 7.4061C28.5713 7.69563 28.889 8.23201 28.889 8.81258C28.889 11.6819 28.889 20.3181 28.889 23.1874C28.889 23.768 28.5713 24.3044 28.0551 24.5947C25.5045 26.0293 17.8291 30.3478 15.2777 31.7825C14.7615 32.0728 14.126 32.0728 13.6105 31.7825C11.0599 30.3478 3.38458 26.0293 0.833221 24.5947C0.317779 24.3044 0 23.7688 0 23.1882C0 20.3189 0 11.6827 0 8.81334C0 8.23277 0.317779 7.69639 0.833981 7.4061C3.38382 5.97144 11.0607 1.65297 13.6105 0.2183Z" fill="#686868"/>
<path fill-rule="evenodd" clip-rule="evenodd" d="M0.231112 23.9271C0.028889 23.6558 0 23.3983 0 23.0516C0 20.1991 0 11.6124 0 8.75906C0 8.18154 0.317019 7.64821 0.8317 7.36021C3.37318 5.93392 11.0227 1.64059 13.5642 0.213548C14.0788 -0.0752139 14.776 -0.0691187 15.2907 0.219643C17.8321 1.64593 25.4558 5.90269 27.9973 7.32897C28.2025 7.44478 28.3592 7.58421 28.499 7.76783L0.231112 23.9271Z" fill="#8A8AAA"/>
<path fill-rule="evenodd" clip-rule="evenodd" d="M14.4445 5.33354C20.3189 5.33354 25.0879 10.113 25.0879 16.0002C25.0879 21.8874 20.3189 26.6669 14.4445 26.6669C8.57018 26.6669 3.80121 21.8874 3.80121 16.0002C3.80121 10.113 8.57018 5.33354 14.4445 5.33354ZM14.4445 10.6669C17.3813 10.6669 19.7662 13.0562 19.7662 16.0002C19.7662 18.9434 17.3813 21.3335 14.4445 21.3335C11.5077 21.3335 9.12287 18.9434 9.12287 16.0002C9.12287 13.0562 11.507 10.6669 14.4445 10.6669Z" fill="white"/>
<path fill-rule="evenodd" clip-rule="evenodd" d="M28.4975 7.77545C28.8898 8.14345 28.8822 8.69811 28.8822 9.13468C28.8822 12.0261 28.8579 20.2501 28.8891 23.1415C28.8921 23.4432 28.7925 23.761 28.6435 24.0002L14.1351 16.0002L28.4975 7.77545Z" fill="#686868"/>
</g>
<path d="M184.541 6.19775C183.82 5.46533 183.82 4.28174 184.541 3.54932C185.262 2.81689 186.434 2.81689 187.155 3.54932L198.235 14.7993C198.956 15.5317 198.956 16.7212 198.235 17.4536L187.155 28.7036C186.434 29.436 185.262 29.436 184.541 28.7036C183.82 27.9712 183.82 26.7817 184.541 26.0493L194.311 16.1235L184.541 6.19775ZM198.771 25.4985H215.391C216.412 25.4985 217.237 26.3364 217.237 27.3735C217.237 28.4106 216.412 29.2485 215.391 29.2485H198.771C197.75 29.2485 196.925 28.4106 196.925 27.3735C196.925 26.3364 197.75 25.4985 198.771 25.4985Z" fill="#8A8AAA"/>
<path d="M296 6.17461C296 2.76504 298.723 0 302.081 0H312.517C315.875 0 318.598 2.76504 318.598 6.17461C318.598 8.33379 317.506 10.2352 315.849 11.3373C317.506 12.4395 318.598 14.3408 318.598 16.5C318.598 19.9096 315.875 22.6746 312.517 22.6746H312.383C310.809 22.6746 309.375 22.0688 308.296 21.0697V26.7609C308.296 30.2156 305.503 33 302.113 33C298.761 33 296 30.2414 296 26.8254C296 24.6662 297.092 22.7648 298.742 21.6627C297.092 20.5605 296 18.6592 296 16.5C296 14.3408 297.092 12.4395 298.742 11.3373C297.092 10.2352 296 8.33379 296 6.17461ZM306.302 12.3492H302.081C299.821 12.3492 297.993 14.2055 297.993 16.5C297.993 18.7816 299.809 20.6379 302.056 20.6508C302.062 20.6508 302.075 20.6508 302.081 20.6508H306.302V12.3492ZM308.296 16.5C308.296 18.7945 310.124 20.6508 312.383 20.6508H312.517C314.77 20.6508 316.605 18.7945 316.605 16.5C316.605 14.2055 314.77 12.3492 312.517 12.3492H312.383C310.124 12.3492 308.296 14.2055 308.296 16.5ZM302.081 22.6746C302.075 22.6746 302.062 22.6746 302.056 22.6746C299.809 22.6875 297.993 24.5438 297.993 26.8254C297.993 29.1135 299.847 30.9762 302.113 30.9762C304.417 30.9762 306.302 29.0813 306.302 26.7609V22.6746H302.081ZM302.081 2.02383C299.821 2.02383 297.993 3.88008 297.993 6.17461C297.993 8.46914 299.821 10.3254 302.081 10.3254H306.302V2.02383H302.081ZM308.296 10.3254H312.517C314.77 10.3254 316.605 8.46914 316.605 6.17461C316.605 3.88008 314.77 2.02383 312.517 2.02383H308.296V10.3254Z" fill="#8A8AAA"/>
<path d="M67.9375 12.0354C67.3959 9.82833 66.3689 8.1641 64.1811 8.1641H61.3603V11.5497C61.3603 14.1782 59.1656 16.3924 56.6613 16.3924H49.1485C47.0945 16.3924 45.3921 18.178 45.3921 20.2708V27.542C45.3921 29.6134 47.1648 30.8276 49.1485 31.4204C51.5262 32.1276 53.8124 32.2561 56.6613 31.4204C58.5536 30.8633 60.4177 29.7419 60.4177 27.542V24.635H52.912V23.6636H64.1811C66.3689 23.6636 67.1778 22.1136 67.9375 19.7923C68.7254 17.3995 68.6902 15.0996 67.9375 12.0354ZM57.1326 26.5706C57.9135 26.5706 58.5466 27.2206 58.5466 28.0206C58.5466 28.8277 57.9135 29.4777 57.1326 29.4777C56.3588 29.4777 55.7187 28.8205 55.7187 28.0206C55.7257 27.2134 56.3588 26.5706 57.1326 26.5706ZM48.8039 15.4353H56.3166C58.4059 15.4353 60.073 13.6853 60.073 11.5568V4.27852C60.073 2.20716 58.3566 0.657213 56.3166 0.307225C53.7983 -0.11419 51.0619 -0.0927615 48.8039 0.314367C45.6243 0.885776 45.0475 2.07859 45.0475 4.28566V7.1927H52.5673V8.1641H42.2266C40.0389 8.1641 38.1256 9.49977 37.5276 12.0354C36.8383 14.9424 36.8101 16.7567 37.5276 19.7923C38.0623 22.0493 39.3355 23.6636 41.5232 23.6636H44.1048V20.178C44.1048 17.6566 46.2503 15.4353 48.8039 15.4353ZM48.3325 5.24991C47.5517 5.24991 46.9186 4.59994 46.9186 3.79996C46.9257 2.99285 47.5517 2.34287 48.3325 2.34287C49.1063 2.34287 49.7465 2.99999 49.7465 3.79996C49.7465 4.59994 49.1134 5.24991 48.3325 5.24991Z" fill="#8A8AAA"/>
<defs>
<linearGradient id="paint0_linear_158_169" x1="240.607" y1="19.543" x2="240.067" y2="27.4463" gradientUnits="userSpaceOnUse">
<stop stop-color="#9F9F9F"/>
<stop offset="0.2722" stop-color="#CECECE"/>
<stop offset="0.9626" stop-color="#F5F5F5"/>
</linearGradient>
<linearGradient id="paint1_linear_158_169" x1="235.715" y1="3.38788" x2="230.301" y2="23.8787" gradientUnits="userSpaceOnUse">
<stop offset="0.4072" stop-color="#9E010A"/>
<stop offset="0.6244" stop-color="#FC56A4"/>
<stop offset="0.689" stop-color="#F2A780"/>
<stop offset="0.7431" stop-color="#FFC78A"/>
</linearGradient>
<linearGradient id="paint2_linear_158_169" x1="241.667" y1="9.63081" x2="239.668" y2="23.7837" gradientUnits="userSpaceOnUse">
<stop offset="0.4072" stop-color="#575757"/>
<stop offset="0.6244" stop-color="#979797"/>
<stop offset="0.689" stop-color="#C0C0C0"/>
<stop offset="0.7431" stop-color="#C0C0C0"/>
</linearGradient>
<linearGradient id="paint3_linear_158_169" x1="245.636" y1="12.6592" x2="230.737" y2="23.2359" gradientUnits="userSpaceOnUse">
<stop offset="0.0753769" stop-color="#5E5E5E"/>
<stop offset="0.3348" stop-color="#757575"/>
<stop offset="0.4851" stop-color="#757575"/>
<stop offset="0.7569" stop-color="#A1A1A1"/>
<stop offset="0.8584" stop-color="#AEAEAE"/>
<stop offset="0.9913" stop-color="#F3F3F3"/>
</linearGradient>
<linearGradient id="paint4_linear_158_169" x1="245.203" y1="18.7351" x2="238.805" y2="14.9843" gradientUnits="userSpaceOnUse">
<stop offset="0.0251256" stop-color="#575757"/>
<stop offset="0.2769" stop-color="#575757"/>
<stop offset="0.4721" stop-color="#757575"/>
<stop offset="0.5228" stop-color="#757575"/>
<stop offset="0.5797" stop-color="#757575"/>
<stop offset="0.6561" stop-color="#8B8989"/>
<stop offset="0.7412" stop-color="#9A9A9A"/>
</linearGradient>
<linearGradient id="paint5_linear_158_169" x1="237.568" y1="31.71" x2="231.244" y2="28.0184" gradientUnits="userSpaceOnUse">
<stop stop-color="#4226A2"/>
<stop offset="0.3221" stop-color="#7357CB"/>
<stop offset="0.6283" stop-color="#3B8FE4"/>
</linearGradient>
<linearGradient id="paint6_linear_158_169" x1="252.156" y1="7.91904" x2="229.971" y2="24.9952" gradientUnits="userSpaceOnUse">
<stop stop-color="#575757"/>
<stop offset="0.3459" stop-color="#969696"/>
<stop offset="0.7297" stop-color="#CACACA"/>
<stop offset="0.8312" stop-color="#BCBCBC"/>
<stop offset="0.9186" stop-color="#EAEAEA"/>
<stop offset="0.9894" stop-color="#BCBCBC"/>
</linearGradient>
<clipPath id="clip0_158_169">
<rect width="24.3752" height="33" fill="white" transform="translate(264)"/>
</clipPath>
<clipPath id="clip1_158_169">
<rect width="31.5154" height="32" fill="white" transform="translate(145)"/>
</clipPath>
<clipPath id="clip2_158_169">
<rect width="24.3752" height="33" fill="white" transform="translate(113)"/>
</clipPath>
<clipPath id="clip3_158_169">
<rect width="27.576" height="32" fill="white" transform="translate(77)"/>
</clipPath>
<clipPath id="clip4_158_169">
<rect width="28.8891" height="32" fill="white"/>
</clipPath>
</defs>
</svg>
